<mxfile host="app.diagrams.net" agent="Mozilla/5.0 (Windows NT 10.0; Win64; x64) AppleWebKit/537.36 (KHTML, like Gecko) Chrome/137.0.0.0 Safari/537.36 Edg/137.0.0.0" version="26.2.14">
  <diagram name="Page-1" id="rEyPldxTlcFiVWtAm4uS">
    <mxGraphModel dx="2928" dy="874" grid="1" gridSize="10" guides="1" tooltips="1" connect="1" arrows="1" fold="1" page="1" pageScale="1" pageWidth="827" pageHeight="1169" math="0" shadow="0">
      <root>
        <mxCell id="0" />
        <mxCell id="1" parent="0" />
        <mxCell id="xA-fxwkaHmTKi_L9O3ju-38" value="" style="rounded=1;whiteSpace=wrap;html=1;align=center;verticalAlign=middle;fontFamily=Helvetica;fontSize=12;" parent="1" vertex="1">
          <mxGeometry x="-1610" y="280" width="226" height="200" as="geometry" />
        </mxCell>
        <mxCell id="xA-fxwkaHmTKi_L9O3ju-29" value="" style="edgeStyle=orthogonalEdgeStyle;rounded=0;orthogonalLoop=1;jettySize=auto;html=1;fontFamily=Helvetica;fontSize=12;fontColor=default;strokeWidth=1.5;exitX=0.5;exitY=1;exitDx=0;exitDy=0;" parent="1" source="xA-fxwkaHmTKi_L9O3ju-30" target="xA-fxwkaHmTKi_L9O3ju-57" edge="1">
          <mxGeometry relative="1" as="geometry">
            <Array as="points">
              <mxPoint x="-819.75" y="270" />
              <mxPoint x="-1156.75" y="270" />
            </Array>
          </mxGeometry>
        </mxCell>
        <mxCell id="xA-fxwkaHmTKi_L9O3ju-30" value="" style="rounded=1;whiteSpace=wrap;html=1;align=center;verticalAlign=middle;fontFamily=Helvetica;fontSize=12;" parent="1" vertex="1">
          <mxGeometry x="-930.11" y="47.5" width="220" height="182.5" as="geometry" />
        </mxCell>
        <mxCell id="xA-fxwkaHmTKi_L9O3ju-33" value="&lt;b style=&quot;&quot;&gt;&lt;font style=&quot;font-size: 18px;&quot;&gt;Predict Model&lt;/font&gt;&lt;/b&gt;" style="rounded=0;whiteSpace=wrap;html=1;strokeColor=none;align=center;verticalAlign=middle;fontFamily=Helvetica;fontSize=12;fontColor=default;fillColor=none;" parent="1" vertex="1">
          <mxGeometry x="-925.11" y="45" width="210" height="30" as="geometry" />
        </mxCell>
        <mxCell id="xA-fxwkaHmTKi_L9O3ju-34" value="&lt;font style=&quot;font-size: 14px;&quot;&gt;Train&lt;/font&gt;" style="rounded=0;whiteSpace=wrap;html=1;strokeColor=none;align=center;verticalAlign=middle;fontFamily=Helvetica;fontSize=12;fontColor=default;fillColor=none;" parent="1" vertex="1">
          <mxGeometry x="-944.11" y="100" width="120" height="60" as="geometry" />
        </mxCell>
        <mxCell id="xA-fxwkaHmTKi_L9O3ju-35" value="&lt;font style=&quot;font-size: 14px;&quot;&gt;Predict&lt;/font&gt;" style="rounded=0;whiteSpace=wrap;html=1;strokeColor=none;align=center;verticalAlign=middle;fontFamily=Helvetica;fontSize=12;fontColor=default;fillColor=none;" parent="1" vertex="1">
          <mxGeometry x="-944.11" y="140" width="120" height="60" as="geometry" />
        </mxCell>
        <mxCell id="xA-fxwkaHmTKi_L9O3ju-36" value="" style="endArrow=classic;html=1;rounded=0;fontFamily=Helvetica;fontSize=12;fontColor=default;strokeWidth=2;" parent="1" edge="1">
          <mxGeometry width="50" height="50" relative="1" as="geometry">
            <mxPoint x="-1035.1100000000001" y="130.58000000000004" as="sourcePoint" />
            <mxPoint x="-940.11" y="131" as="targetPoint" />
          </mxGeometry>
        </mxCell>
        <mxCell id="xA-fxwkaHmTKi_L9O3ju-37" value="&lt;b&gt;&lt;font style=&quot;font-size: 14px;&quot;&gt;Train&lt;/font&gt;&lt;/b&gt;&lt;div&gt;&lt;b&gt;&lt;font style=&quot;font-size: 14px;&quot;&gt;Tuning&lt;/font&gt;&lt;/b&gt;&lt;/div&gt;" style="text;html=1;align=center;verticalAlign=middle;resizable=0;points=[];autosize=1;strokeColor=none;fillColor=none;fontFamily=Helvetica;fontSize=12;fontColor=default;" parent="1" vertex="1">
          <mxGeometry x="-1025.1100000000001" y="70" width="70" height="50" as="geometry" />
        </mxCell>
        <mxCell id="xA-fxwkaHmTKi_L9O3ju-56" value="&lt;font style=&quot;font-size: 14px;&quot;&gt;&lt;b&gt;Runtime Analyze&lt;/b&gt;&lt;/font&gt;" style="text;html=1;align=center;verticalAlign=middle;resizable=0;points=[];autosize=1;strokeColor=none;fillColor=none;fontFamily=Helvetica;fontSize=12;fontColor=default;" parent="1" vertex="1">
          <mxGeometry x="-1493.75" y="240" width="140" height="30" as="geometry" />
        </mxCell>
        <mxCell id="xA-fxwkaHmTKi_L9O3ju-57" value="" style="rounded=1;whiteSpace=wrap;html=1;align=center;verticalAlign=middle;fontFamily=Helvetica;fontSize=12;" parent="1" vertex="1">
          <mxGeometry x="-1353.75" y="285.25" width="380" height="194.75" as="geometry" />
        </mxCell>
        <mxCell id="xA-fxwkaHmTKi_L9O3ju-58" value="&lt;b style=&quot;&quot;&gt;&lt;font style=&quot;font-size: 19px;&quot;&gt;Scheduler&lt;/font&gt;&lt;/b&gt;" style="rounded=0;whiteSpace=wrap;html=1;strokeColor=none;align=center;verticalAlign=middle;fontFamily=Helvetica;fontSize=12;fontColor=default;fillColor=none;" parent="1" vertex="1">
          <mxGeometry x="-1262.86" y="275.25" width="210" height="60" as="geometry" />
        </mxCell>
        <mxCell id="xA-fxwkaHmTKi_L9O3ju-79" value="&lt;b style=&quot;&quot;&gt;&lt;font style=&quot;font-size: 18px;&quot;&gt;Interference Predict&lt;/font&gt;&lt;/b&gt;" style="rounded=0;whiteSpace=wrap;html=1;strokeColor=none;align=center;verticalAlign=middle;fontFamily=Helvetica;fontSize=12;fontColor=default;fillColor=none;" parent="1" vertex="1">
          <mxGeometry x="-1620" y="290" width="243" height="29.75" as="geometry" />
        </mxCell>
        <mxCell id="xA-fxwkaHmTKi_L9O3ju-80" value="&lt;font style=&quot;font-size: 14px;&quot;&gt;&lt;b&gt;Runtime Prediction&lt;/b&gt;&lt;/font&gt;" style="text;html=1;align=center;verticalAlign=middle;resizable=0;points=[];autosize=1;strokeColor=none;fillColor=none;fontFamily=Helvetica;fontSize=12;fontColor=default;" parent="1" vertex="1">
          <mxGeometry x="-1043.75" y="240" width="150" height="30" as="geometry" />
        </mxCell>
        <mxCell id="xA-fxwkaHmTKi_L9O3ju-81" value="" style="endArrow=classic;html=1;rounded=0;fontFamily=Helvetica;fontSize=12;fontColor=default;strokeWidth=2;" parent="1" edge="1">
          <mxGeometry width="50" height="50" relative="1" as="geometry">
            <mxPoint x="-1383.5" y="399.11999999999966" as="sourcePoint" />
            <mxPoint x="-1353.75" y="399.6199999999999" as="targetPoint" />
          </mxGeometry>
        </mxCell>
        <mxCell id="pxr-nG4pKd3Dx8W5PENf-3" value="" style="endArrow=classic;html=1;rounded=0;strokeWidth=2;" parent="1" edge="1">
          <mxGeometry width="50" height="50" relative="1" as="geometry">
            <mxPoint x="-1493.75" y="220" as="sourcePoint" />
            <mxPoint x="-1493.75" y="278" as="targetPoint" />
          </mxGeometry>
        </mxCell>
        <mxCell id="pxr-nG4pKd3Dx8W5PENf-67" value="" style="group" parent="1" vertex="1" connectable="0">
          <mxGeometry x="-1349.75" y="330" width="226" height="135.63" as="geometry" />
        </mxCell>
        <mxCell id="xA-fxwkaHmTKi_L9O3ju-64" value="" style="rounded=1;whiteSpace=wrap;html=1;strokeColor=default;align=center;verticalAlign=middle;fontFamily=Helvetica;fontSize=12;fontColor=default;fillColor=none;dashed=1;dashPattern=8 8;" parent="pxr-nG4pKd3Dx8W5PENf-67" vertex="1">
          <mxGeometry x="0.4035714285714286" width="225.59642857142856" height="135.63" as="geometry" />
        </mxCell>
        <mxCell id="xA-fxwkaHmTKi_L9O3ju-67" value="&lt;b style=&quot;&quot;&gt;&lt;font style=&quot;font-size: 17px;&quot;&gt;Cluster-level Queue&lt;/font&gt;&lt;/b&gt;" style="rounded=0;whiteSpace=wrap;html=1;strokeColor=none;align=center;verticalAlign=middle;fontFamily=Helvetica;fontSize=12;fontColor=default;fillColor=none;" parent="pxr-nG4pKd3Dx8W5PENf-67" vertex="1">
          <mxGeometry x="32.285714285714285" y="3.0868967441861077" width="169.5" height="50.46697674418605" as="geometry" />
        </mxCell>
        <mxCell id="xA-fxwkaHmTKi_L9O3ju-68" value="" style="endArrow=none;dashed=1;html=1;dashPattern=1 3;strokeWidth=2;rounded=0;exitX=0.124;exitY=0.108;exitDx=0;exitDy=0;exitPerimeter=0;" parent="pxr-nG4pKd3Dx8W5PENf-67" edge="1" source="xA-fxwkaHmTKi_L9O3ju-77">
          <mxGeometry width="50" height="50" relative="1" as="geometry">
            <mxPoint x="8.676785714285714" y="85.16302325581395" as="sourcePoint" />
            <mxPoint x="217.92857142857144" y="85.16302325581395" as="targetPoint" />
          </mxGeometry>
        </mxCell>
        <mxCell id="xA-fxwkaHmTKi_L9O3ju-69" value="" style="rounded=1;whiteSpace=wrap;html=1;fillColor=#d5e8d4;strokeColor=#82b366;strokeWidth=3;" parent="pxr-nG4pKd3Dx8W5PENf-67" vertex="1">
          <mxGeometry x="96.85714285714286" y="53.553873488372155" width="20.17857142857143" height="22.547878707274904" as="geometry" />
        </mxCell>
        <mxCell id="xA-fxwkaHmTKi_L9O3ju-70" value="" style="rounded=1;whiteSpace=wrap;html=1;fillColor=#d5e8d4;strokeColor=#82b366;strokeWidth=3;" parent="pxr-nG4pKd3Dx8W5PENf-67" vertex="1">
          <mxGeometry x="129.14285714285714" y="53.553873488372155" width="20.17857142857143" height="22.547878707274904" as="geometry" />
        </mxCell>
        <mxCell id="xA-fxwkaHmTKi_L9O3ju-71" value="" style="rounded=1;whiteSpace=wrap;html=1;fillColor=#d5e8d4;strokeColor=#82b366;strokeWidth=3;" parent="pxr-nG4pKd3Dx8W5PENf-67" vertex="1">
          <mxGeometry x="161.2267857142857" y="53.553873488372155" width="20.17857142857143" height="22.547878707274904" as="geometry" />
        </mxCell>
        <mxCell id="xA-fxwkaHmTKi_L9O3ju-72" value="" style="rounded=1;whiteSpace=wrap;html=1;fillColor=#d5e8d4;strokeColor=#82b366;strokeWidth=3;" parent="pxr-nG4pKd3Dx8W5PENf-67" vertex="1">
          <mxGeometry x="193.71428571428572" y="53.553873488372155" width="20.17857142857143" height="22.547878707274904" as="geometry" />
        </mxCell>
        <mxCell id="xA-fxwkaHmTKi_L9O3ju-73" value="&lt;font style=&quot;font-size: 13px;&quot;&gt;High priority Queue&lt;/font&gt;" style="text;whiteSpace=wrap;html=1;fontFamily=Helvetica;fontSize=12;fontColor=default;align=center;" parent="pxr-nG4pKd3Dx8W5PENf-67" vertex="1">
          <mxGeometry x="10.004285714285714" y="48.00894334352972" width="72.64285714285714" height="33.641435031254154" as="geometry" />
        </mxCell>
        <mxCell id="xA-fxwkaHmTKi_L9O3ju-77" value="&lt;font style=&quot;font-size: 14px;&quot;&gt;Low Priority Queue&lt;/font&gt;" style="text;whiteSpace=wrap;html=1;fontFamily=Helvetica;fontSize=12;fontColor=default;align=center;" parent="pxr-nG4pKd3Dx8W5PENf-67" vertex="1">
          <mxGeometry x="5.96857142857143" y="82.4801403112116" width="80.71428571428572" height="33.641435031254154" as="geometry" />
        </mxCell>
        <mxCell id="pxr-nG4pKd3Dx8W5PENf-30" value="" style="rounded=1;whiteSpace=wrap;html=1;fillColor=#fff2cc;strokeColor=#d6b656;strokeWidth=3;" parent="pxr-nG4pKd3Dx8W5PENf-67" vertex="1">
          <mxGeometry x="161.2267857142857" y="93.57418604651161" width="20.17857142857143" height="22.547878707274904" as="geometry" />
        </mxCell>
        <mxCell id="pxr-nG4pKd3Dx8W5PENf-32" value="" style="rounded=1;whiteSpace=wrap;html=1;fillColor=#fff2cc;strokeColor=#d6b656;strokeWidth=3;" parent="pxr-nG4pKd3Dx8W5PENf-67" vertex="1">
          <mxGeometry x="129.14285714285714" y="93.57418604651161" width="20.17857142857143" height="22.547878707274904" as="geometry" />
        </mxCell>
        <mxCell id="pxr-nG4pKd3Dx8W5PENf-33" value="" style="rounded=1;whiteSpace=wrap;html=1;fillColor=#fff2cc;strokeColor=#d6b656;strokeWidth=3;" parent="pxr-nG4pKd3Dx8W5PENf-67" vertex="1">
          <mxGeometry x="96.85714285714286" y="93.57418604651161" width="20.17857142857143" height="22.547878707274904" as="geometry" />
        </mxCell>
        <mxCell id="pxr-nG4pKd3Dx8W5PENf-70" value="" style="group" parent="1" vertex="1" connectable="0">
          <mxGeometry x="-1099.75" y="330" width="157" height="140" as="geometry" />
        </mxCell>
        <mxCell id="xA-fxwkaHmTKi_L9O3ju-59" value="" style="rounded=1;whiteSpace=wrap;html=1;strokeColor=default;align=center;verticalAlign=middle;fontFamily=Helvetica;fontSize=12;fontColor=default;fillColor=none;dashed=1;dashPattern=8 8;" parent="pxr-nG4pKd3Dx8W5PENf-70" vertex="1">
          <mxGeometry x="-14" width="126.68587896253602" height="140" as="geometry" />
        </mxCell>
        <mxCell id="xA-fxwkaHmTKi_L9O3ju-61" value="&lt;font style=&quot;font-size: 14px;&quot;&gt;Job Sorting&lt;/font&gt;" style="rounded=0;whiteSpace=wrap;html=1;strokeColor=default;align=center;verticalAlign=middle;fontFamily=Helvetica;fontSize=12;fontColor=default;fillColor=none;" parent="pxr-nG4pKd3Dx8W5PENf-70" vertex="1">
          <mxGeometry x="-6.30835734870317" y="41.62162162162163" width="108.58789625360231" height="22.702702702702705" as="geometry" />
        </mxCell>
        <mxCell id="xA-fxwkaHmTKi_L9O3ju-62" value="&lt;font style=&quot;font-size: 14px;&quot;&gt;Fair Quotas&lt;/font&gt;" style="rounded=0;whiteSpace=wrap;html=1;strokeColor=default;align=center;verticalAlign=middle;fontFamily=Helvetica;fontSize=12;fontColor=default;fillColor=none;" parent="pxr-nG4pKd3Dx8W5PENf-70" vertex="1">
          <mxGeometry x="-6.30835734870317" y="71.8918918918919" width="108.58789625360231" height="22.702702702702705" as="geometry" />
        </mxCell>
        <mxCell id="xA-fxwkaHmTKi_L9O3ju-63" value="&lt;font style=&quot;font-size: 14px;&quot;&gt;Job Preempt&lt;/font&gt;" style="rounded=0;whiteSpace=wrap;html=1;strokeColor=default;align=center;verticalAlign=middle;fontFamily=Helvetica;fontSize=12;fontColor=default;fillColor=none;" parent="pxr-nG4pKd3Dx8W5PENf-70" vertex="1">
          <mxGeometry x="-6.30835734870317" y="102.16216216216218" width="108.58789625360231" height="22.702702702702705" as="geometry" />
        </mxCell>
        <mxCell id="pxr-nG4pKd3Dx8W5PENf-4" style="edgeStyle=orthogonalEdgeStyle;rounded=0;orthogonalLoop=1;jettySize=auto;html=1;exitX=0.5;exitY=1;exitDx=0;exitDy=0;" parent="pxr-nG4pKd3Dx8W5PENf-70" source="xA-fxwkaHmTKi_L9O3ju-61" target="xA-fxwkaHmTKi_L9O3ju-61" edge="1">
          <mxGeometry relative="1" as="geometry" />
        </mxCell>
        <mxCell id="xA-fxwkaHmTKi_L9O3ju-60" value="&lt;b style=&quot;&quot;&gt;&lt;font style=&quot;font-size: 17px;&quot;&gt;Schedule&amp;nbsp;&lt;/font&gt;&lt;/b&gt;" style="rounded=0;whiteSpace=wrap;html=1;strokeColor=none;align=center;verticalAlign=middle;fontFamily=Helvetica;fontSize=12;fontColor=default;fillColor=none;" parent="pxr-nG4pKd3Dx8W5PENf-70" vertex="1">
          <mxGeometry x="16" width="90" height="50.6" as="geometry" />
        </mxCell>
        <mxCell id="pxr-nG4pKd3Dx8W5PENf-104" value="" style="endArrow=classic;html=1;rounded=0;fontFamily=Helvetica;fontSize=12;fontColor=default;strokeWidth=1.5;" parent="pxr-nG4pKd3Dx8W5PENf-70" edge="1">
          <mxGeometry width="50" height="50" relative="1" as="geometry">
            <mxPoint x="126" y="63.49000000000001" as="sourcePoint" />
            <mxPoint x="186" y="63.49000000000001" as="targetPoint" />
          </mxGeometry>
        </mxCell>
        <mxCell id="pxr-nG4pKd3Dx8W5PENf-109" value="&lt;font style=&quot;text-wrap-mode: nowrap; font-size: 14px;&quot;&gt;&lt;b&gt;Data&amp;nbsp;&lt;/b&gt;&lt;/font&gt;&lt;div style=&quot;text-wrap-mode: nowrap;&quot;&gt;&lt;font style=&quot;font-size: 14px;&quot;&gt;&lt;b&gt;Collection&lt;/b&gt;&lt;/font&gt;&lt;/div&gt;" style="text;html=1;align=center;verticalAlign=middle;whiteSpace=wrap;rounded=0;" parent="1" vertex="1">
          <mxGeometry x="-1340.82" y="90" width="60" height="30" as="geometry" />
        </mxCell>
        <mxCell id="pxr-nG4pKd3Dx8W5PENf-110" value="" style="endArrow=classic;html=1;rounded=0;fontFamily=Helvetica;fontSize=12;fontColor=default;strokeWidth=2;" parent="1" edge="1">
          <mxGeometry width="50" height="50" relative="1" as="geometry">
            <mxPoint x="-1363.61" y="130" as="sourcePoint" />
            <mxPoint x="-1256.86" y="130" as="targetPoint" />
          </mxGeometry>
        </mxCell>
        <mxCell id="pxr-nG4pKd3Dx8W5PENf-111" value="" style="group" parent="1" vertex="1" connectable="0">
          <mxGeometry x="-1256.86" y="40" width="220" height="180" as="geometry" />
        </mxCell>
        <mxCell id="xA-fxwkaHmTKi_L9O3ju-19" value="&lt;div&gt;&lt;br&gt;&lt;/div&gt;&lt;div&gt;&lt;br&gt;&lt;/div&gt;&lt;div&gt;&lt;br&gt;&lt;/div&gt;&lt;div&gt;&lt;br&gt;&lt;/div&gt;&lt;div&gt;&lt;br&gt;&lt;/div&gt;&lt;div&gt;&lt;br&gt;&lt;/div&gt;&lt;div&gt;&lt;br&gt;&lt;/div&gt;&lt;div&gt;&lt;br&gt;&lt;/div&gt;" style="rounded=1;whiteSpace=wrap;html=1;align=center;verticalAlign=middle;fontFamily=Helvetica;fontSize=12;" parent="pxr-nG4pKd3Dx8W5PENf-111" vertex="1">
          <mxGeometry y="8.571428571428571" width="220" height="171.42857142857142" as="geometry" />
        </mxCell>
        <mxCell id="xA-fxwkaHmTKi_L9O3ju-20" value="&lt;font style=&quot;font-size: 18px;&quot;&gt;&lt;b style=&quot;&quot;&gt;Feature Extraction&lt;/b&gt;&lt;/font&gt;" style="rounded=0;whiteSpace=wrap;html=1;strokeColor=none;align=center;verticalAlign=middle;fontFamily=Helvetica;fontSize=12;fontColor=default;fillColor=none;" parent="pxr-nG4pKd3Dx8W5PENf-111" vertex="1">
          <mxGeometry x="6" width="210" height="51.42857142857142" as="geometry" />
        </mxCell>
        <mxCell id="3zxGxmOl3bXe5hBAlZmh-21" value="" style="group" vertex="1" connectable="0" parent="pxr-nG4pKd3Dx8W5PENf-111">
          <mxGeometry x="30" y="37.89473684210526" width="162" height="132.6315789473684" as="geometry" />
        </mxCell>
        <mxCell id="xA-fxwkaHmTKi_L9O3ju-21" value="&lt;font style=&quot;font-size: 14px;&quot;&gt;Model Configuration&lt;/font&gt;" style="rounded=1;whiteSpace=wrap;html=1;align=center;verticalAlign=middle;fontFamily=Helvetica;fontSize=12;" parent="3zxGxmOl3bXe5hBAlZmh-21" vertex="1">
          <mxGeometry x="1.5" width="160.5" height="37.89473684210526" as="geometry" />
        </mxCell>
        <mxCell id="xA-fxwkaHmTKi_L9O3ju-24" value="&lt;span style=&quot;color: light-dark(rgb(0, 0, 0), rgb(255, 255, 255)); background-color: transparent;&quot;&gt;&lt;font style=&quot;font-size: 14px;&quot;&gt;Runtime Utilization Characteristic&lt;/font&gt;&lt;/span&gt;" style="rounded=1;whiteSpace=wrap;html=1;align=center;verticalAlign=middle;fontFamily=Helvetica;fontSize=12;" parent="3zxGxmOl3bXe5hBAlZmh-21" vertex="1">
          <mxGeometry y="47.368421052631575" width="162" height="37.89473684210526" as="geometry" />
        </mxCell>
        <mxCell id="pxr-nG4pKd3Dx8W5PENf-107" value="&lt;font style=&quot;font-size: 14px;&quot;&gt;Model Architechture&lt;/font&gt;" style="rounded=1;whiteSpace=wrap;html=1;align=center;verticalAlign=middle;fontFamily=Helvetica;fontSize=12;" parent="3zxGxmOl3bXe5hBAlZmh-21" vertex="1">
          <mxGeometry y="94.73684210526315" width="162" height="37.89473684210526" as="geometry" />
        </mxCell>
        <mxCell id="pxr-nG4pKd3Dx8W5PENf-125" value="" style="group" parent="1" vertex="1" connectable="0">
          <mxGeometry x="-923.75" y="270" width="210" height="210" as="geometry" />
        </mxCell>
        <mxCell id="xA-fxwkaHmTKi_L9O3ju-66" value="&lt;font style=&quot;font-size: 14px;&quot;&gt;&lt;b&gt;Schedule&amp;nbsp;&lt;/b&gt;&lt;/font&gt;&lt;div&gt;&lt;font style=&quot;font-size: 14px;&quot;&gt;&lt;b&gt;&amp;amp;&lt;br&gt;Preempt&lt;/b&gt;&lt;/font&gt;&lt;/div&gt;" style="text;html=1;align=center;verticalAlign=middle;resizable=0;points=[];autosize=1;strokeColor=none;fillColor=none;fontFamily=Helvetica;fontSize=12;fontColor=default;" parent="pxr-nG4pKd3Dx8W5PENf-125" vertex="1">
          <mxGeometry x="70" y="75.32426550598477" width="90" height="60" as="geometry" />
        </mxCell>
        <mxCell id="pxr-nG4pKd3Dx8W5PENf-36" value="&lt;div&gt;&lt;br&gt;&lt;/div&gt;&lt;div&gt;&lt;br&gt;&lt;/div&gt;&lt;div&gt;&lt;br&gt;&lt;/div&gt;&lt;div&gt;&lt;br&gt;&lt;/div&gt;&lt;div&gt;&lt;br&gt;&lt;/div&gt;&lt;div&gt;&lt;br&gt;&lt;/div&gt;&lt;div&gt;&lt;br&gt;&lt;/div&gt;&lt;div&gt;&lt;br&gt;&lt;/div&gt;" style="rounded=1;whiteSpace=wrap;html=1;align=center;verticalAlign=middle;fontFamily=Helvetica;fontSize=12;" parent="pxr-nG4pKd3Dx8W5PENf-125" vertex="1">
          <mxGeometry x="10" y="8.911860718171926" width="200" height="201.08813928182806" as="geometry" />
        </mxCell>
        <mxCell id="pxr-nG4pKd3Dx8W5PENf-60" value="&lt;b style=&quot;&quot;&gt;&lt;font style=&quot;font-size: 18px;&quot;&gt;Cluster&lt;/font&gt;&lt;/b&gt;" style="rounded=0;whiteSpace=wrap;html=1;strokeColor=none;align=center;verticalAlign=middle;fontFamily=Helvetica;fontSize=12;fontColor=default;fillColor=none;" parent="pxr-nG4pKd3Dx8W5PENf-125" vertex="1">
          <mxGeometry width="210" height="36.56147986942329" as="geometry" />
        </mxCell>
        <mxCell id="pxr-nG4pKd3Dx8W5PENf-96" value="" style="group" parent="pxr-nG4pKd3Dx8W5PENf-125" vertex="1" connectable="0">
          <mxGeometry x="23" y="36.93471164309031" width="177.00247524752476" height="166.6724169962048" as="geometry" />
        </mxCell>
        <mxCell id="pxr-nG4pKd3Dx8W5PENf-91" value="" style="group" parent="pxr-nG4pKd3Dx8W5PENf-96" vertex="1" connectable="0">
          <mxGeometry width="175.24752475247521" height="73.1341065314897" as="geometry" />
        </mxCell>
        <mxCell id="pxr-nG4pKd3Dx8W5PENf-47" value="" style="rounded=1;whiteSpace=wrap;html=1;fillColor=#dae8fc;strokeColor=#6c8ebf;" parent="pxr-nG4pKd3Dx8W5PENf-91" vertex="1">
          <mxGeometry x="3" y="0.9140369967355824" width="78.86138613861384" height="73.1341065314897" as="geometry" />
        </mxCell>
        <mxCell id="pxr-nG4pKd3Dx8W5PENf-71" value="" style="group" parent="pxr-nG4pKd3Dx8W5PENf-91" vertex="1" connectable="0">
          <mxGeometry x="7.381188118811879" y="4.977042915151677" width="70.09900990099007" height="65.00809469465752" as="geometry" />
        </mxCell>
        <mxCell id="pxr-nG4pKd3Dx8W5PENf-37" value="" style="sketch=0;pointerEvents=1;shadow=0;dashed=0;html=1;strokeColor=none;fillColor=#434445;aspect=fixed;labelPosition=center;verticalLabelPosition=bottom;verticalAlign=top;align=center;outlineConnect=0;shape=mxgraph.vvd.cpu;rounded=1;fontFamily=Helvetica;fontSize=12;fontColor=default;" parent="pxr-nG4pKd3Dx8W5PENf-71" vertex="1">
          <mxGeometry x="35.049504950495034" width="32.03654424201941" height="32.03654424201941" as="geometry" />
        </mxCell>
        <mxCell id="pxr-nG4pKd3Dx8W5PENf-38" value="" style="sketch=0;pointerEvents=1;shadow=0;dashed=0;html=1;strokeColor=none;fillColor=#434445;aspect=fixed;labelPosition=center;verticalLabelPosition=bottom;verticalAlign=top;align=center;outlineConnect=0;shape=mxgraph.vvd.cpu;rounded=1;fontFamily=Helvetica;fontSize=12;fontColor=default;" parent="pxr-nG4pKd3Dx8W5PENf-71" vertex="1">
          <mxGeometry width="32.03654424201941" height="32.03654424201941" as="geometry" />
        </mxCell>
        <mxCell id="pxr-nG4pKd3Dx8W5PENf-39" value="" style="sketch=0;pointerEvents=1;shadow=0;dashed=0;html=1;strokeColor=none;fillColor=#434445;aspect=fixed;labelPosition=center;verticalLabelPosition=bottom;verticalAlign=top;align=center;outlineConnect=0;shape=mxgraph.vvd.cpu;rounded=1;fontFamily=Helvetica;fontSize=12;fontColor=default;" parent="pxr-nG4pKd3Dx8W5PENf-71" vertex="1">
          <mxGeometry x="35.049504950495034" y="32.50404734732876" width="32.03654424201941" height="32.03654424201941" as="geometry" />
        </mxCell>
        <mxCell id="pxr-nG4pKd3Dx8W5PENf-40" value="" style="sketch=0;pointerEvents=1;shadow=0;dashed=0;html=1;strokeColor=none;fillColor=#434445;aspect=fixed;labelPosition=center;verticalLabelPosition=bottom;verticalAlign=top;align=center;outlineConnect=0;shape=mxgraph.vvd.cpu;rounded=1;fontFamily=Helvetica;fontSize=12;fontColor=default;" parent="pxr-nG4pKd3Dx8W5PENf-71" vertex="1">
          <mxGeometry y="32.50404734732876" width="32.03654424201941" height="32.03654424201941" as="geometry" />
        </mxCell>
        <mxCell id="pxr-nG4pKd3Dx8W5PENf-94" value="" style="rounded=1;whiteSpace=wrap;html=1;fillColor=#fff2cc;strokeColor=#d6b656;strokeWidth=3;" parent="pxr-nG4pKd3Dx8W5PENf-71" vertex="1">
          <mxGeometry x="8.762376237623759" y="40.630059184160956" width="52.574257425742545" height="16.25202367366438" as="geometry" />
        </mxCell>
        <mxCell id="pxr-nG4pKd3Dx8W5PENf-103" value="" style="rounded=1;whiteSpace=wrap;html=1;fillColor=#d5e8d4;strokeColor=#82b366;strokeWidth=3;" parent="pxr-nG4pKd3Dx8W5PENf-71" vertex="1">
          <mxGeometry x="6.571782178217818" y="6.0945088776241425" width="21.905940594059395" height="20.315029592080478" as="geometry" />
        </mxCell>
        <mxCell id="pxr-nG4pKd3Dx8W5PENf-102" value="" style="rounded=1;whiteSpace=wrap;html=1;fillColor=#d5e8d4;strokeColor=#82b366;strokeWidth=3;" parent="pxr-nG4pKd3Dx8W5PENf-71" vertex="1">
          <mxGeometry x="41.621287128712844" y="6.0945088776241425" width="21.905940594059395" height="20.315029592080478" as="geometry" />
        </mxCell>
        <mxCell id="pxr-nG4pKd3Dx8W5PENf-78" value="" style="group" parent="pxr-nG4pKd3Dx8W5PENf-91" vertex="1" connectable="0">
          <mxGeometry x="96.38613861386136" y="0.9140369967355824" width="78.86138613861384" height="73.1341065314897" as="geometry" />
        </mxCell>
        <mxCell id="pxr-nG4pKd3Dx8W5PENf-72" value="" style="rounded=1;whiteSpace=wrap;html=1;fillColor=#dae8fc;strokeColor=#6c8ebf;" parent="pxr-nG4pKd3Dx8W5PENf-78" vertex="1">
          <mxGeometry width="78.86138613861384" height="73.1341065314897" as="geometry" />
        </mxCell>
        <mxCell id="pxr-nG4pKd3Dx8W5PENf-73" value="" style="group" parent="pxr-nG4pKd3Dx8W5PENf-78" vertex="1" connectable="0">
          <mxGeometry x="4.38118811881188" y="4.063005918416095" width="70.09900990099008" height="65.00809469465752" as="geometry" />
        </mxCell>
        <mxCell id="pxr-nG4pKd3Dx8W5PENf-74" value="" style="sketch=0;pointerEvents=1;shadow=0;dashed=0;html=1;strokeColor=none;fillColor=#434445;aspect=fixed;labelPosition=center;verticalLabelPosition=bottom;verticalAlign=top;align=center;outlineConnect=0;shape=mxgraph.vvd.cpu;rounded=1;fontFamily=Helvetica;fontSize=12;fontColor=default;" parent="pxr-nG4pKd3Dx8W5PENf-73" vertex="1">
          <mxGeometry x="35.04950495049504" width="32.03654424201942" height="32.03654424201942" as="geometry" />
        </mxCell>
        <mxCell id="pxr-nG4pKd3Dx8W5PENf-75" value="" style="sketch=0;pointerEvents=1;shadow=0;dashed=0;html=1;strokeColor=none;fillColor=#434445;aspect=fixed;labelPosition=center;verticalLabelPosition=bottom;verticalAlign=top;align=center;outlineConnect=0;shape=mxgraph.vvd.cpu;rounded=1;fontFamily=Helvetica;fontSize=12;fontColor=default;" parent="pxr-nG4pKd3Dx8W5PENf-73" vertex="1">
          <mxGeometry width="32.03654424201942" height="32.03654424201942" as="geometry" />
        </mxCell>
        <mxCell id="pxr-nG4pKd3Dx8W5PENf-76" value="" style="sketch=0;pointerEvents=1;shadow=0;dashed=0;html=1;strokeColor=none;fillColor=#434445;aspect=fixed;labelPosition=center;verticalLabelPosition=bottom;verticalAlign=top;align=center;outlineConnect=0;shape=mxgraph.vvd.cpu;rounded=1;fontFamily=Helvetica;fontSize=12;fontColor=default;" parent="pxr-nG4pKd3Dx8W5PENf-73" vertex="1">
          <mxGeometry x="35.04950495049504" y="32.50404734732876" width="32.03654424201942" height="32.03654424201942" as="geometry" />
        </mxCell>
        <mxCell id="pxr-nG4pKd3Dx8W5PENf-77" value="" style="sketch=0;pointerEvents=1;shadow=0;dashed=0;html=1;strokeColor=none;fillColor=#434445;aspect=fixed;labelPosition=center;verticalLabelPosition=bottom;verticalAlign=top;align=center;outlineConnect=0;shape=mxgraph.vvd.cpu;rounded=1;fontFamily=Helvetica;fontSize=12;fontColor=default;" parent="pxr-nG4pKd3Dx8W5PENf-73" vertex="1">
          <mxGeometry y="32.50404734732876" width="32.03654424201942" height="32.03654424201942" as="geometry" />
        </mxCell>
        <mxCell id="pxr-nG4pKd3Dx8W5PENf-100" value="" style="rounded=1;whiteSpace=wrap;html=1;fillColor=#fff2cc;strokeColor=#d6b656;strokeWidth=3;" parent="pxr-nG4pKd3Dx8W5PENf-73" vertex="1">
          <mxGeometry x="8.76237623762376" y="8.12601183683219" width="52.57425742574256" height="16.25202367366438" as="geometry" />
        </mxCell>
        <mxCell id="pxr-nG4pKd3Dx8W5PENf-99" value="" style="rounded=1;whiteSpace=wrap;html=1;fillColor=#fff2cc;strokeColor=#d6b656;strokeWidth=3;" parent="pxr-nG4pKd3Dx8W5PENf-73" vertex="1">
          <mxGeometry x="8.76237623762376" y="40.630059184160956" width="52.57425742574256" height="16.25202367366438" as="geometry" />
        </mxCell>
        <mxCell id="pxr-nG4pKd3Dx8W5PENf-93" value="" style="group" parent="pxr-nG4pKd3Dx8W5PENf-96" vertex="1" connectable="0">
          <mxGeometry x="1.7524752475247525" y="85.9248653095889" width="175.25" height="81.34929270946682" as="geometry" />
        </mxCell>
        <mxCell id="pxr-nG4pKd3Dx8W5PENf-89" value="" style="rounded=1;whiteSpace=wrap;html=1;fillColor=#dae8fc;strokeColor=#6c8ebf;" parent="pxr-nG4pKd3Dx8W5PENf-93" vertex="1">
          <mxGeometry width="175.25" height="73.12295973884657" as="geometry" />
        </mxCell>
        <mxCell id="pxr-nG4pKd3Dx8W5PENf-79" value="" style="group" parent="pxr-nG4pKd3Dx8W5PENf-93" vertex="1" connectable="0">
          <mxGeometry x="9.246419587904736" y="2.6507072905331905" width="75.78271340647576" height="65.07943416757347" as="geometry" />
        </mxCell>
        <mxCell id="pxr-nG4pKd3Dx8W5PENf-80" value="" style="sketch=0;pointerEvents=1;shadow=0;dashed=0;html=1;strokeColor=none;fillColor=#434445;aspect=fixed;labelPosition=center;verticalLabelPosition=bottom;verticalAlign=top;align=center;outlineConnect=0;shape=mxgraph.vvd.cpu;rounded=1;fontFamily=Helvetica;fontSize=12;fontColor=default;" parent="pxr-nG4pKd3Dx8W5PENf-79" vertex="1">
          <mxGeometry x="37.89135670323788" width="32.0365442420194" height="32.0365442420194" as="geometry" />
        </mxCell>
        <mxCell id="pxr-nG4pKd3Dx8W5PENf-81" value="" style="sketch=0;pointerEvents=1;shadow=0;dashed=0;html=1;strokeColor=none;fillColor=#434445;aspect=fixed;labelPosition=center;verticalLabelPosition=bottom;verticalAlign=top;align=center;outlineConnect=0;shape=mxgraph.vvd.cpu;rounded=1;fontFamily=Helvetica;fontSize=12;fontColor=default;" parent="pxr-nG4pKd3Dx8W5PENf-79" vertex="1">
          <mxGeometry width="32.0365442420194" height="32.0365442420194" as="geometry" />
        </mxCell>
        <mxCell id="pxr-nG4pKd3Dx8W5PENf-82" value="" style="sketch=0;pointerEvents=1;shadow=0;dashed=0;html=1;strokeColor=none;fillColor=#434445;aspect=fixed;labelPosition=center;verticalLabelPosition=bottom;verticalAlign=top;align=center;outlineConnect=0;shape=mxgraph.vvd.cpu;rounded=1;fontFamily=Helvetica;fontSize=12;fontColor=default;" parent="pxr-nG4pKd3Dx8W5PENf-79" vertex="1">
          <mxGeometry x="37.89135670323788" y="32.539717083786734" width="32.0365442420194" height="32.0365442420194" as="geometry" />
        </mxCell>
        <mxCell id="pxr-nG4pKd3Dx8W5PENf-83" value="" style="sketch=0;pointerEvents=1;shadow=0;dashed=0;html=1;strokeColor=none;fillColor=#434445;aspect=fixed;labelPosition=center;verticalLabelPosition=bottom;verticalAlign=top;align=center;outlineConnect=0;shape=mxgraph.vvd.cpu;rounded=1;fontFamily=Helvetica;fontSize=12;fontColor=default;" parent="pxr-nG4pKd3Dx8W5PENf-79" vertex="1">
          <mxGeometry y="32.539717083786734" width="32.0365442420194" height="32.0365442420194" as="geometry" />
        </mxCell>
        <mxCell id="pxr-nG4pKd3Dx8W5PENf-98" value="" style="rounded=1;whiteSpace=wrap;html=1;fillColor=#d5e8d4;strokeColor=#82b366;strokeWidth=3;" parent="pxr-nG4pKd3Dx8W5PENf-79" vertex="1">
          <mxGeometry x="8.403118811881185" y="12.405767138193694" width="52.57425742574256" height="40.67464635473342" as="geometry" />
        </mxCell>
        <mxCell id="pxr-nG4pKd3Dx8W5PENf-84" value="" style="group" parent="pxr-nG4pKd3Dx8W5PENf-93" vertex="1" connectable="0">
          <mxGeometry x="94.50197217018997" y="0.8226332970620259" width="75.78271340647576" height="65.07943416757347" as="geometry" />
        </mxCell>
        <mxCell id="pxr-nG4pKd3Dx8W5PENf-85" value="" style="sketch=0;pointerEvents=1;shadow=0;dashed=0;html=1;strokeColor=none;fillColor=#434445;aspect=fixed;labelPosition=center;verticalLabelPosition=bottom;verticalAlign=top;align=center;outlineConnect=0;shape=mxgraph.vvd.cpu;rounded=1;fontFamily=Helvetica;fontSize=12;fontColor=default;" parent="pxr-nG4pKd3Dx8W5PENf-84" vertex="1">
          <mxGeometry x="37.89135670323788" y="1.8280739934711643" width="32.0365442420194" height="32.0365442420194" as="geometry" />
        </mxCell>
        <mxCell id="pxr-nG4pKd3Dx8W5PENf-86" value="" style="sketch=0;pointerEvents=1;shadow=0;dashed=0;html=1;strokeColor=none;fillColor=#434445;aspect=fixed;labelPosition=center;verticalLabelPosition=bottom;verticalAlign=top;align=center;outlineConnect=0;shape=mxgraph.vvd.cpu;rounded=1;fontFamily=Helvetica;fontSize=12;fontColor=default;" parent="pxr-nG4pKd3Dx8W5PENf-84" vertex="1">
          <mxGeometry y="1.8280739934711643" width="32.0365442420194" height="32.0365442420194" as="geometry" />
        </mxCell>
        <mxCell id="pxr-nG4pKd3Dx8W5PENf-87" value="" style="sketch=0;pointerEvents=1;shadow=0;dashed=0;html=1;strokeColor=none;fillColor=#434445;aspect=fixed;labelPosition=center;verticalLabelPosition=bottom;verticalAlign=top;align=center;outlineConnect=0;shape=mxgraph.vvd.cpu;rounded=1;fontFamily=Helvetica;fontSize=12;fontColor=default;" parent="pxr-nG4pKd3Dx8W5PENf-84" vertex="1">
          <mxGeometry x="37.89135670323788" y="34.3677910772579" width="32.0365442420194" height="32.0365442420194" as="geometry" />
        </mxCell>
        <mxCell id="pxr-nG4pKd3Dx8W5PENf-88" value="" style="sketch=0;pointerEvents=1;shadow=0;dashed=0;html=1;strokeColor=none;fillColor=#434445;aspect=fixed;labelPosition=center;verticalLabelPosition=bottom;verticalAlign=top;align=center;outlineConnect=0;shape=mxgraph.vvd.cpu;rounded=1;fontFamily=Helvetica;fontSize=12;fontColor=default;" parent="pxr-nG4pKd3Dx8W5PENf-84" vertex="1">
          <mxGeometry y="34.3677910772579" width="32.0365442420194" height="32.0365442420194" as="geometry" />
        </mxCell>
        <mxCell id="pxr-nG4pKd3Dx8W5PENf-128" value="&lt;span style=&quot;font-size: 14px; text-wrap-mode: nowrap;&quot;&gt;Schedule&lt;br&gt;&amp;amp;&lt;br&gt;Preempt&lt;/span&gt;" style="text;html=1;align=center;verticalAlign=middle;whiteSpace=wrap;rounded=0;" parent="1" vertex="1">
          <mxGeometry x="-972.61" y="350" width="60" height="30" as="geometry" />
        </mxCell>
        <mxCell id="3zxGxmOl3bXe5hBAlZmh-20" value="" style="group" vertex="1" connectable="0" parent="1">
          <mxGeometry x="-1609.3899999999999" y="45" width="268.57" height="205" as="geometry" />
        </mxCell>
        <mxCell id="3zxGxmOl3bXe5hBAlZmh-2" value="" style="group" vertex="1" connectable="0" parent="3zxGxmOl3bXe5hBAlZmh-20">
          <mxGeometry width="268.57" height="205" as="geometry" />
        </mxCell>
        <mxCell id="pxr-nG4pKd3Dx8W5PENf-106" value="" style="group" parent="3zxGxmOl3bXe5hBAlZmh-2" vertex="1" connectable="0">
          <mxGeometry y="40" width="268.57" height="165" as="geometry" />
        </mxCell>
        <mxCell id="xA-fxwkaHmTKi_L9O3ju-1" value="" style="rounded=1;whiteSpace=wrap;html=1;fillStyle=auto;" parent="pxr-nG4pKd3Dx8W5PENf-106" vertex="1">
          <mxGeometry x="-10" y="-35" width="260" height="175" as="geometry" />
        </mxCell>
        <mxCell id="xA-fxwkaHmTKi_L9O3ju-2" value="" style="endArrow=none;dashed=1;html=1;dashPattern=1 3;strokeWidth=2;rounded=0;" parent="pxr-nG4pKd3Dx8W5PENf-106" edge="1">
          <mxGeometry width="50" height="50" relative="1" as="geometry">
            <mxPoint y="90" as="sourcePoint" />
            <mxPoint x="231.02803738317758" y="90" as="targetPoint" />
          </mxGeometry>
        </mxCell>
        <mxCell id="xA-fxwkaHmTKi_L9O3ju-3" value="" style="rounded=1;whiteSpace=wrap;html=1;fillColor=#d5e8d4;strokeColor=#82b366;strokeWidth=3;" parent="pxr-nG4pKd3Dx8W5PENf-106" vertex="1">
          <mxGeometry x="77.73130841121495" y="50" width="28.878504672897197" height="30" as="geometry" />
        </mxCell>
        <mxCell id="xA-fxwkaHmTKi_L9O3ju-4" value="" style="rounded=1;whiteSpace=wrap;html=1;fillColor=#d5e8d4;strokeColor=#82b366;strokeWidth=3;" parent="pxr-nG4pKd3Dx8W5PENf-106" vertex="1">
          <mxGeometry x="116.4766355140187" y="50" width="28.878504672897197" height="30" as="geometry" />
        </mxCell>
        <mxCell id="xA-fxwkaHmTKi_L9O3ju-5" value="" style="rounded=1;whiteSpace=wrap;html=1;fillColor=#d5e8d4;strokeColor=#82b366;strokeWidth=3;" parent="pxr-nG4pKd3Dx8W5PENf-106" vertex="1">
          <mxGeometry x="157.14719626168224" y="50" width="28.878504672897197" height="30" as="geometry" />
        </mxCell>
        <mxCell id="xA-fxwkaHmTKi_L9O3ju-6" value="" style="rounded=1;whiteSpace=wrap;html=1;fillColor=#fff2cc;strokeColor=#d6b656;strokeWidth=3;" parent="pxr-nG4pKd3Dx8W5PENf-106" vertex="1">
          <mxGeometry x="197.33644859813083" y="50" width="28.878504672897197" height="30" as="geometry" />
        </mxCell>
        <mxCell id="xA-fxwkaHmTKi_L9O3ju-7" value="" style="rounded=1;whiteSpace=wrap;html=1;fillColor=#d5e8d4;strokeColor=#82b366;strokeWidth=3;" parent="pxr-nG4pKd3Dx8W5PENf-106" vertex="1">
          <mxGeometry x="116.4766355140187" y="100" width="28.878504672897197" height="30" as="geometry" />
        </mxCell>
        <mxCell id="xA-fxwkaHmTKi_L9O3ju-8" value="" style="rounded=1;whiteSpace=wrap;html=1;fillColor=#fff2cc;strokeColor=#d6b656;strokeWidth=3;" parent="pxr-nG4pKd3Dx8W5PENf-106" vertex="1">
          <mxGeometry x="197.33644859813083" y="100" width="28.878504672897197" height="30" as="geometry" />
        </mxCell>
        <mxCell id="xA-fxwkaHmTKi_L9O3ju-9" value="" style="rounded=1;whiteSpace=wrap;html=1;fillColor=#fff2cc;strokeColor=#d6b656;strokeWidth=3;" parent="pxr-nG4pKd3Dx8W5PENf-106" vertex="1">
          <mxGeometry x="157.14719626168224" y="100" width="28.878504672897197" height="30" as="geometry" />
        </mxCell>
        <mxCell id="xA-fxwkaHmTKi_L9O3ju-10" value="" style="sketch=0;outlineConnect=0;fontColor=#232F3E;gradientColor=none;fillColor=#232F3D;strokeColor=none;dashed=0;verticalLabelPosition=bottom;verticalAlign=top;align=center;html=1;fontSize=12;fontStyle=0;aspect=fixed;pointerEvents=1;shape=mxgraph.aws4.user;" parent="pxr-nG4pKd3Dx8W5PENf-106" vertex="1">
          <mxGeometry x="15.401869158878505" y="50" width="26.953271028037385" height="28.368317757009343" as="geometry" />
        </mxCell>
        <mxCell id="pxr-nG4pKd3Dx8W5PENf-105" value="" style="sketch=0;outlineConnect=0;fontColor=#232F3E;gradientColor=none;fillColor=#232F3D;strokeColor=none;dashed=0;verticalLabelPosition=bottom;verticalAlign=top;align=center;html=1;fontSize=12;fontStyle=0;aspect=fixed;pointerEvents=1;shape=mxgraph.aws4.user;" parent="pxr-nG4pKd3Dx8W5PENf-106" vertex="1">
          <mxGeometry x="15.401869158878505" y="100" width="26.953271028037385" height="28.368317757009343" as="geometry" />
        </mxCell>
        <mxCell id="pxr-nG4pKd3Dx8W5PENf-27" value="&lt;span style=&quot;text-wrap-mode: wrap;&quot;&gt;&lt;font style=&quot;font-size: 14px;&quot;&gt;&lt;b&gt;Guaranteed&lt;/b&gt;&lt;/font&gt;&lt;/span&gt;" style="text;html=1;align=center;verticalAlign=middle;resizable=0;points=[];autosize=1;strokeColor=none;fillColor=none;" parent="pxr-nG4pKd3Dx8W5PENf-106" vertex="1">
          <mxGeometry x="27.678130841121494" y="10.000000000000114" width="100" height="30" as="geometry" />
        </mxCell>
        <mxCell id="pxr-nG4pKd3Dx8W5PENf-29" value="&lt;font style=&quot;font-size: 14px;&quot;&gt;&lt;b style=&quot;&quot;&gt;Best-effort&amp;nbsp;&lt;/b&gt;&lt;/font&gt;&lt;b style=&quot;background-color: transparent; color: light-dark(rgb(0, 0, 0), rgb(255, 255, 255)); font-size: 14px;&quot;&gt;&amp;nbsp;&lt;/b&gt;" style="text;html=1;align=center;verticalAlign=middle;whiteSpace=wrap;rounded=0;" parent="pxr-nG4pKd3Dx8W5PENf-106" vertex="1">
          <mxGeometry x="146.56121495327102" y="10.000000000000114" width="113.58878504672897" height="30" as="geometry" />
        </mxCell>
        <mxCell id="pxr-nG4pKd3Dx8W5PENf-28" value="" style="rounded=1;whiteSpace=wrap;html=1;fillColor=#fff2cc;strokeColor=#d6b656;strokeWidth=3;" parent="pxr-nG4pKd3Dx8W5PENf-106" vertex="1">
          <mxGeometry x="129.47485981308412" y="15.000000000000114" width="19.25233644859813" height="20" as="geometry" />
        </mxCell>
        <mxCell id="pxr-nG4pKd3Dx8W5PENf-26" value="" style="rounded=1;whiteSpace=wrap;html=1;fillColor=#d5e8d4;strokeColor=#82b366;strokeWidth=3;" parent="pxr-nG4pKd3Dx8W5PENf-106" vertex="1">
          <mxGeometry x="8.425794392523363" y="15.000000000000114" width="19.25233644859813" height="20" as="geometry" />
        </mxCell>
        <mxCell id="pxr-nG4pKd3Dx8W5PENf-31" value="&lt;span style=&quot;font-size: 18px;&quot;&gt;&lt;b&gt;User-level Queue&lt;/b&gt;&lt;/span&gt;" style="rounded=0;whiteSpace=wrap;html=1;strokeColor=none;align=center;verticalAlign=middle;fontFamily=Helvetica;fontSize=12;fontColor=default;fillColor=none;" parent="3zxGxmOl3bXe5hBAlZmh-2" vertex="1">
          <mxGeometry x="14.439252336448599" width="202.14953271028037" height="60" as="geometry" />
        </mxCell>
        <mxCell id="3zxGxmOl3bXe5hBAlZmh-31" value="" style="group" vertex="1" connectable="0" parent="1">
          <mxGeometry x="-912.61" y="75" width="180" height="40" as="geometry" />
        </mxCell>
        <mxCell id="3zxGxmOl3bXe5hBAlZmh-22" value="" style="shape=parallelogram;perimeter=parallelogramPerimeter;whiteSpace=wrap;html=1;fixedSize=1;" vertex="1" parent="3zxGxmOl3bXe5hBAlZmh-31">
          <mxGeometry x="20" width="160" height="40" as="geometry" />
        </mxCell>
        <mxCell id="3zxGxmOl3bXe5hBAlZmh-23" value="" style="ellipse;whiteSpace=wrap;html=1;aspect=fixed;fillColor=#CCCCCC;strokeColor=#666666;strokeWidth=0;gradientColor=none;" vertex="1" parent="3zxGxmOl3bXe5hBAlZmh-31">
          <mxGeometry x="33" y="27" width="8" height="8" as="geometry" />
        </mxCell>
        <mxCell id="3zxGxmOl3bXe5hBAlZmh-24" value="" style="ellipse;whiteSpace=wrap;html=1;aspect=fixed;fillColor=#CCCCCC;strokeColor=#666666;strokeWidth=0;gradientColor=none;" vertex="1" parent="3zxGxmOl3bXe5hBAlZmh-31">
          <mxGeometry x="51" y="17" width="8" height="8" as="geometry" />
        </mxCell>
        <mxCell id="3zxGxmOl3bXe5hBAlZmh-26" value="" style="ellipse;whiteSpace=wrap;html=1;aspect=fixed;fillColor=#CCCCCC;strokeColor=#666666;strokeWidth=0;gradientColor=none;" vertex="1" parent="3zxGxmOl3bXe5hBAlZmh-31">
          <mxGeometry x="71" y="9" width="8" height="8" as="geometry" />
        </mxCell>
        <mxCell id="3zxGxmOl3bXe5hBAlZmh-27" value="" style="ellipse;whiteSpace=wrap;html=1;aspect=fixed;fillColor=#CCCCCC;strokeColor=#666666;strokeWidth=0;gradientColor=none;" vertex="1" parent="3zxGxmOl3bXe5hBAlZmh-31">
          <mxGeometry x="91" y="17" width="8" height="8" as="geometry" />
        </mxCell>
        <mxCell id="3zxGxmOl3bXe5hBAlZmh-28" value="" style="ellipse;whiteSpace=wrap;html=1;aspect=fixed;fillColor=#CCCCCC;strokeColor=#666666;strokeWidth=0;gradientColor=none;" vertex="1" parent="3zxGxmOl3bXe5hBAlZmh-31">
          <mxGeometry x="112" y="29" width="8" height="8" as="geometry" />
        </mxCell>
        <mxCell id="3zxGxmOl3bXe5hBAlZmh-29" value="" style="ellipse;whiteSpace=wrap;html=1;aspect=fixed;fillColor=#CCCCCC;strokeColor=#666666;strokeWidth=0;gradientColor=none;" vertex="1" parent="3zxGxmOl3bXe5hBAlZmh-31">
          <mxGeometry x="135" y="22" width="8" height="8" as="geometry" />
        </mxCell>
        <mxCell id="3zxGxmOl3bXe5hBAlZmh-30" value="" style="ellipse;whiteSpace=wrap;html=1;aspect=fixed;fillColor=#CCCCCC;strokeColor=#666666;strokeWidth=0;gradientColor=none;" vertex="1" parent="3zxGxmOl3bXe5hBAlZmh-31">
          <mxGeometry x="157" y="8" width="8" height="8" as="geometry" />
        </mxCell>
        <mxCell id="3zxGxmOl3bXe5hBAlZmh-42" value="&lt;font style=&quot;font-size: 14px;&quot;&gt;&lt;b&gt;Tree&lt;/b&gt;&lt;/font&gt;" style="rounded=0;whiteSpace=wrap;html=1;" vertex="1" parent="1">
          <mxGeometry x="-890.11" y="140" width="140" height="20" as="geometry" />
        </mxCell>
        <mxCell id="3zxGxmOl3bXe5hBAlZmh-43" value="" style="group" vertex="1" connectable="0" parent="1">
          <mxGeometry x="-920.11" y="180" width="180" height="40" as="geometry" />
        </mxCell>
        <mxCell id="3zxGxmOl3bXe5hBAlZmh-44" value="" style="shape=parallelogram;perimeter=parallelogramPerimeter;whiteSpace=wrap;html=1;fixedSize=1;" vertex="1" parent="3zxGxmOl3bXe5hBAlZmh-43">
          <mxGeometry x="20" y="1" width="160" height="40" as="geometry" />
        </mxCell>
        <mxCell id="3zxGxmOl3bXe5hBAlZmh-45" value="" style="ellipse;whiteSpace=wrap;html=1;aspect=fixed;fillColor=#CCCCCC;strokeColor=#666666;strokeWidth=0;gradientColor=none;" vertex="1" parent="3zxGxmOl3bXe5hBAlZmh-43">
          <mxGeometry x="33" y="27" width="8" height="8" as="geometry" />
        </mxCell>
        <mxCell id="3zxGxmOl3bXe5hBAlZmh-46" value="" style="ellipse;whiteSpace=wrap;html=1;aspect=fixed;fillColor=#CCCCCC;strokeColor=#666666;strokeWidth=0;gradientColor=none;" vertex="1" parent="3zxGxmOl3bXe5hBAlZmh-43">
          <mxGeometry x="51" y="17" width="8" height="8" as="geometry" />
        </mxCell>
        <mxCell id="3zxGxmOl3bXe5hBAlZmh-47" value="" style="ellipse;whiteSpace=wrap;html=1;aspect=fixed;fillColor=#CCCCCC;strokeColor=#666666;strokeWidth=0;gradientColor=none;" vertex="1" parent="3zxGxmOl3bXe5hBAlZmh-43">
          <mxGeometry x="71" y="9" width="8" height="8" as="geometry" />
        </mxCell>
        <mxCell id="3zxGxmOl3bXe5hBAlZmh-48" value="" style="ellipse;whiteSpace=wrap;html=1;aspect=fixed;fillColor=#CCCCCC;strokeColor=#666666;strokeWidth=0;gradientColor=none;" vertex="1" parent="3zxGxmOl3bXe5hBAlZmh-43">
          <mxGeometry x="91" y="17" width="8" height="8" as="geometry" />
        </mxCell>
        <mxCell id="3zxGxmOl3bXe5hBAlZmh-49" value="" style="ellipse;whiteSpace=wrap;html=1;aspect=fixed;fillColor=#CCCCCC;strokeColor=#666666;strokeWidth=0;gradientColor=none;" vertex="1" parent="3zxGxmOl3bXe5hBAlZmh-43">
          <mxGeometry x="112" y="29" width="8" height="8" as="geometry" />
        </mxCell>
        <mxCell id="3zxGxmOl3bXe5hBAlZmh-50" value="" style="ellipse;whiteSpace=wrap;html=1;aspect=fixed;fillColor=#CCCCCC;strokeColor=#666666;strokeWidth=0;gradientColor=none;" vertex="1" parent="3zxGxmOl3bXe5hBAlZmh-43">
          <mxGeometry x="135" y="22" width="8" height="8" as="geometry" />
        </mxCell>
        <mxCell id="3zxGxmOl3bXe5hBAlZmh-51" value="" style="ellipse;whiteSpace=wrap;html=1;aspect=fixed;fillColor=#CCCCCC;strokeColor=#666666;strokeWidth=0;gradientColor=none;" vertex="1" parent="3zxGxmOl3bXe5hBAlZmh-43">
          <mxGeometry x="157" y="8" width="8" height="8" as="geometry" />
        </mxCell>
        <mxCell id="3zxGxmOl3bXe5hBAlZmh-55" value="" style="curved=1;endArrow=none;html=1;rounded=0;startFill=0;entryX=0;entryY=1;entryDx=0;entryDy=0;strokeColor=#FF0000;strokeWidth=2;" edge="1" parent="3zxGxmOl3bXe5hBAlZmh-43" target="3zxGxmOl3bXe5hBAlZmh-51">
          <mxGeometry width="50" height="50" relative="1" as="geometry">
            <mxPoint x="33" y="30" as="sourcePoint" />
            <mxPoint x="83" y="-20" as="targetPoint" />
            <Array as="points">
              <mxPoint x="60" y="20" />
              <mxPoint x="70" y="12" />
              <mxPoint x="100" y="20" />
              <mxPoint x="120" y="40" />
            </Array>
          </mxGeometry>
        </mxCell>
        <mxCell id="3zxGxmOl3bXe5hBAlZmh-53" value="" style="endArrow=openThin;html=1;rounded=0;endFill=0;" edge="1" parent="1">
          <mxGeometry width="50" height="50" relative="1" as="geometry">
            <mxPoint x="-819.11" y="118" as="sourcePoint" />
            <mxPoint x="-819.11" y="138" as="targetPoint" />
          </mxGeometry>
        </mxCell>
        <mxCell id="3zxGxmOl3bXe5hBAlZmh-54" value="" style="endArrow=openThin;html=1;rounded=0;endFill=0;" edge="1" parent="1">
          <mxGeometry width="50" height="50" relative="1" as="geometry">
            <mxPoint x="-819.11" y="161" as="sourcePoint" />
            <mxPoint x="-819.11" y="181" as="targetPoint" />
          </mxGeometry>
        </mxCell>
        <mxCell id="3zxGxmOl3bXe5hBAlZmh-65" value="" style="group" vertex="1" connectable="0" parent="1">
          <mxGeometry x="-1610" y="320" width="220" height="137.02960102960105" as="geometry" />
        </mxCell>
        <mxCell id="xA-fxwkaHmTKi_L9O3ju-44" value="" style="sketch=0;pointerEvents=1;shadow=0;dashed=0;html=1;strokeColor=none;fillColor=#434445;aspect=fixed;labelPosition=center;verticalLabelPosition=bottom;verticalAlign=top;align=center;outlineConnect=0;shape=mxgraph.vvd.cpu;rounded=1;fontFamily=Helvetica;fontSize=12;fontColor=default;container=0;" parent="3zxGxmOl3bXe5hBAlZmh-65" vertex="1">
          <mxGeometry x="73.00326359832638" y="22.24512226512229" width="34.392271248166445" height="34.392271248166445" as="geometry" />
        </mxCell>
        <mxCell id="xA-fxwkaHmTKi_L9O3ju-47" value="&lt;font style=&quot;font-size: 14px;&quot;&gt;&lt;b&gt;Single&lt;/b&gt;&lt;/font&gt;" style="text;html=1;align=center;verticalAlign=middle;resizable=0;points=[];autosize=1;strokeColor=none;fillColor=none;fontFamily=Helvetica;fontSize=12;fontColor=default;container=0;" parent="3zxGxmOl3bXe5hBAlZmh-65" vertex="1">
          <mxGeometry x="0.43723849372395307" width="70" height="30" as="geometry" />
        </mxCell>
        <mxCell id="xA-fxwkaHmTKi_L9O3ju-48" value="" style="sketch=0;pointerEvents=1;shadow=0;dashed=0;html=1;strokeColor=none;fillColor=#434445;aspect=fixed;labelPosition=center;verticalLabelPosition=bottom;verticalAlign=top;align=center;outlineConnect=0;shape=mxgraph.vvd.cpu;rounded=1;fontFamily=Helvetica;fontSize=12;fontColor=default;container=0;" parent="3zxGxmOl3bXe5hBAlZmh-65" vertex="1">
          <mxGeometry x="72.2332635983264" y="90.74774774774778" width="34.392271248166445" height="34.392271248166445" as="geometry" />
        </mxCell>
        <mxCell id="xA-fxwkaHmTKi_L9O3ju-49" value="&lt;font style=&quot;font-size: 14px;&quot;&gt;&lt;b&gt;Colocate&lt;/b&gt;&lt;/font&gt;" style="text;html=1;align=center;verticalAlign=middle;resizable=0;points=[];autosize=1;strokeColor=none;fillColor=none;fontFamily=Helvetica;fontSize=12;fontColor=default;container=0;" parent="3zxGxmOl3bXe5hBAlZmh-65" vertex="1">
          <mxGeometry y="48.983268983269" width="80" height="30" as="geometry" />
        </mxCell>
        <mxCell id="pxr-nG4pKd3Dx8W5PENf-63" value="" style="edgeStyle=orthogonalEdgeStyle;rounded=0;orthogonalLoop=1;jettySize=auto;html=1;" parent="3zxGxmOl3bXe5hBAlZmh-65" source="pxr-nG4pKd3Dx8W5PENf-1" target="pxr-nG4pKd3Dx8W5PENf-2" edge="1">
          <mxGeometry relative="1" as="geometry" />
        </mxCell>
        <mxCell id="pxr-nG4pKd3Dx8W5PENf-1" value="&lt;b style=&quot;&quot;&gt;&lt;font style=&quot;font-size: 14px;&quot;&gt;Interference Model&lt;/font&gt;&lt;/b&gt;" style="rounded=0;whiteSpace=wrap;html=1;strokeColor=#9673a6;align=center;verticalAlign=middle;fontFamily=Helvetica;fontSize=12;fillColor=#e1d5e7;container=0;" parent="3zxGxmOl3bXe5hBAlZmh-65" vertex="1">
          <mxGeometry x="129.6400000000001" y="22.779999999999973" width="90.36" height="33.86" as="geometry" />
        </mxCell>
        <mxCell id="pxr-nG4pKd3Dx8W5PENf-2" value="&lt;font style=&quot;font-size: 14px;&quot;&gt;&lt;b&gt;Decay&lt;/b&gt;&lt;/font&gt;" style="rounded=1;whiteSpace=wrap;html=1;fillColor=#f8cecc;strokeColor=#b85450;container=0;" parent="3zxGxmOl3bXe5hBAlZmh-65" vertex="1">
          <mxGeometry x="140.2797907949789" y="102.65222651222666" width="69.0836820083682" height="22.487773487773488" as="geometry" />
        </mxCell>
        <mxCell id="pxr-nG4pKd3Dx8W5PENf-115" value="" style="endArrow=classic;html=1;rounded=0;" parent="3zxGxmOl3bXe5hBAlZmh-65" edge="1">
          <mxGeometry width="50" height="50" relative="1" as="geometry">
            <mxPoint x="54.836820083681914" y="40.96782496782498" as="sourcePoint" />
            <mxPoint x="72.32635983263594" y="40.96782496782498" as="targetPoint" />
          </mxGeometry>
        </mxCell>
        <mxCell id="pxr-nG4pKd3Dx8W5PENf-119" value="" style="endArrow=classic;html=1;rounded=0;" parent="3zxGxmOl3bXe5hBAlZmh-65" edge="1">
          <mxGeometry width="50" height="50" relative="1" as="geometry">
            <mxPoint x="110.43096234309633" y="39.85842985842987" as="sourcePoint" />
            <mxPoint x="127.92050209205013" y="39.85842985842987" as="targetPoint" />
          </mxGeometry>
        </mxCell>
        <mxCell id="pxr-nG4pKd3Dx8W5PENf-121" value="" style="endArrow=classic;html=1;rounded=0;" parent="3zxGxmOl3bXe5hBAlZmh-65" edge="1">
          <mxGeometry width="50" height="50" relative="1" as="geometry">
            <mxPoint x="55.27786610878661" y="105.5598455598456" as="sourcePoint" />
            <mxPoint x="72.76740585774064" y="105.5598455598456" as="targetPoint" />
          </mxGeometry>
        </mxCell>
        <mxCell id="3zxGxmOl3bXe5hBAlZmh-57" value="" style="rounded=1;whiteSpace=wrap;html=1;fillColor=#d5e8d4;strokeColor=#82b366;strokeWidth=3;container=0;" vertex="1" parent="3zxGxmOl3bXe5hBAlZmh-65">
          <mxGeometry x="25.815794392523458" y="28.980000000000018" width="19.25233644859813" height="20" as="geometry" />
        </mxCell>
        <mxCell id="3zxGxmOl3bXe5hBAlZmh-60" value="" style="group" vertex="1" connectable="0" parent="3zxGxmOl3bXe5hBAlZmh-65">
          <mxGeometry x="9.999623430962401" y="73.02960102960105" width="52.46861924686186" height="64" as="geometry" />
        </mxCell>
        <mxCell id="pxr-nG4pKd3Dx8W5PENf-11" value="" style="rounded=1;whiteSpace=wrap;html=1;fillColor=#f5f5f5;strokeColor=#666666;fontColor=#333333;container=0;" parent="3zxGxmOl3bXe5hBAlZmh-60" vertex="1">
          <mxGeometry x="11.2468619246863" width="30" height="64" as="geometry" />
        </mxCell>
        <mxCell id="pxr-nG4pKd3Dx8W5PENf-10" value="&lt;font style=&quot;font-size: 16px;&quot;&gt;&lt;b&gt;...&lt;/b&gt;&lt;/font&gt;" style="text;html=1;align=center;verticalAlign=middle;whiteSpace=wrap;rounded=0;container=0;" parent="3zxGxmOl3bXe5hBAlZmh-60" vertex="1">
          <mxGeometry y="14.171171171171181" width="52.46861924686193" height="26.71814671814672" as="geometry" />
        </mxCell>
        <mxCell id="3zxGxmOl3bXe5hBAlZmh-58" value="" style="rounded=1;whiteSpace=wrap;html=1;fillColor=#fff2cc;strokeColor=#d6b656;strokeWidth=3;container=0;" vertex="1" parent="3zxGxmOl3bXe5hBAlZmh-60">
          <mxGeometry x="16.665236382121975" y="5.950398970398965" width="19.25233644859813" height="20" as="geometry" />
        </mxCell>
        <mxCell id="3zxGxmOl3bXe5hBAlZmh-59" value="" style="rounded=1;whiteSpace=wrap;html=1;fillColor=#fff2cc;strokeColor=#d6b656;strokeWidth=3;container=0;" vertex="1" parent="3zxGxmOl3bXe5hBAlZmh-60">
          <mxGeometry x="16.575236382122057" y="37.840398970399065" width="19.25233644859813" height="20" as="geometry" />
        </mxCell>
        <mxCell id="3zxGxmOl3bXe5hBAlZmh-64" value="" style="edgeStyle=segmentEdgeStyle;endArrow=classic;html=1;curved=0;rounded=0;endSize=8;startSize=8;" edge="1" parent="3zxGxmOl3bXe5hBAlZmh-65">
          <mxGeometry width="50" height="50" relative="1" as="geometry">
            <mxPoint x="106.63000000000011" y="106.63999999999987" as="sourcePoint" />
            <mxPoint x="130" y="61" as="targetPoint" />
          </mxGeometry>
        </mxCell>
      </root>
    </mxGraphModel>
  </diagram>
</mxfile>
